<svg version="1.1" xmlns="http://www.w3.org/2000/svg" xmlns:xlink="http://www.w3.org/1999/xlink" viewBox="0 0 192 192" width="24" height="24" fill="000000"><g fill="none" fill-rule="nonzero" stroke="none" stroke-width="1" stroke-linecap="butt" stroke-linejoin="miter" stroke-miterlimit="10" stroke-dasharray="" stroke-dashoffset="0" font-family="none" font-weight="none" font-size="none" text-anchor="none" style="mix-blend-mode: normal"><path d="M0,192v-192h192v192z" fill="none"/><g fill="#f9880a"><path d="M96,19.2c-42.4128,0 -76.8,34.3872 -76.8,76.8c0,42.4128 34.3872,76.8 76.8,76.8c42.4128,0 76.8,-34.3872 76.8,-76.8c0,-42.4128 -34.3872,-76.8 -76.8,-76.8zM105.0496,96c0,0 20.0896,20.0896 21.0752,21.0752c2.5024,2.5024 2.5024,6.5536 0,9.0496c-2.5024,2.5024 -6.5536,2.5024 -9.0496,0c-0.9856,-0.9792 -21.0752,-21.0752 -21.0752,-21.0752c0,0 -20.0896,20.0896 -21.0752,21.0752c-2.5024,2.5024 -6.5536,2.5024 -9.0496,0c-2.5024,-2.5024 -2.5024,-6.5536 0,-9.0496c0.9792,-0.9856 21.0752,-21.0752 21.0752,-21.0752c0,0 -20.0896,-20.0896 -21.0752,-21.0752c-2.5024,-2.5024 -2.5024,-6.5536 0,-9.0496c2.5024,-2.5024 6.5536,-2.5024 9.0496,0c0.9856,0.9792 21.0752,21.0752 21.0752,21.0752c0,0 20.0896,-20.0896 21.0752,-21.0752c2.5024,-2.5024 6.5536,-2.5024 9.0496,0c2.5024,2.5024 2.5024,6.5536 0,9.0496c-0.9792,0.9856 -21.0752,21.0752 -21.0752,21.0752z"/></g></g></svg>